<svg xmlns="http://www.w3.org/2000/svg" xmlns:xlink="http://www.w3.org/1999/xlink" viewBox="0 0 512 512" xmlns:v="https://vecta.io/nano"><path d="M494.345 419.31H17.655C7.904 419.31 0 411.406 0 401.655V83.862c0-9.751 7.904-17.655 17.655-17.655h476.69c9.751 0 17.655 7.904 17.655 17.655v317.793c0 9.751-7.904 17.655-17.655 17.655z" fill="#464655"/><path d="M26.483 92.69h459.034v247.172H26.483z" fill="#959cb3"/><path d="M0 366.345v35.31c0 9.751 7.904 17.655 17.655 17.655h476.69c9.751 0 17.655-7.904 17.655-17.655v-35.31H0z" fill="#c7cfe2"/><path d="M326.621 489.931H185.379l8.828-70.621h123.586z" fill="#afb9d2"/><g fill="#959cb3"><path d="M320 436.966l-2.207-17.656H194.207L192 436.966z"/><circle cx="256" cy="392.828" r="13.241"/></g><path d="M326.621 498.759H185.379a8.83 8.83 0 0 1-8.828-8.828h0a8.83 8.83 0 0 1 8.828-8.828H326.62a8.83 8.83 0 0 1 8.828 8.828h0a8.83 8.83 0 0 1-8.827 8.828z" fill="#c7cfe2"/><path d="M423.724 339.862H88.276V22.069a8.83 8.83 0 0 1 8.828-8.828h317.793a8.83 8.83 0 0 1 8.828 8.828v317.793z" fill="#eff2fa"/><path d="M388.414 119.172H123.586a8.83 8.83 0 0 1-8.828-8.828V48.552a8.83 8.83 0 0 1 8.828-8.828h264.828a8.83 8.83 0 0 1 8.828 8.828v61.793a8.83 8.83 0 0 1-8.828 8.827z" fill="#f7abaf"/><path d="M384 172.138H128c-7.313 0-13.241-5.929-13.241-13.241h0c0-7.313 5.929-13.241 13.241-13.241h256c7.313 0 13.241 5.929 13.241 13.241h0c0 7.312-5.928 13.241-13.241 13.241z" fill="#ff6464"/><g fill="#afb9d2"><use xlink:href="#B"/><use xlink:href="#C"/></g><g fill="#c7cfe2"><use xlink:href="#B" y="35.31"/><use xlink:href="#C" y="35.31"/><use xlink:href="#B" y="70.621"/><use xlink:href="#B" y="105.931"/><use xlink:href="#C" y="70.621"/></g><path d="M247.172 339.862H114.759v-27.018c0-4.579 3.712-8.292 8.292-8.292h115.83c4.579 0 8.292 3.712 8.292 8.292v27.018h-.001z" fill="#e4eaf6"/><path d="M406.069 251.586h35.31v220.69h-35.31z" fill="#ff6464"/><path d="M406.069 251.586h17.655v220.69h-17.655z" fill="#d2555a"/><path d="M406.069 251.586l15.086-60.344c.669-2.675 4.47-2.675 5.139 0l15.085 60.344h-35.31z" fill="#ffe6a1"/><path d="M421.155 191.242l-6.259 25.034h17.655l-6.259-25.034c-.668-2.675-4.468-2.675-5.137 0z" fill="#ff6464"/><path d="M432.552 498.759h-17.655a8.83 8.83 0 0 1-8.828-8.828v-17.655h35.31v17.655a8.83 8.83 0 0 1-8.827 8.828z" fill="#ffe6a1"/><path d="M423.724 489.931v-17.655h-17.655v17.655a8.83 8.83 0 0 0 8.828 8.828h17.655a8.83 8.83 0 0 1-8.828-8.828z" fill="#ffdc9b"/><defs ><path id="B" d="M388.414 216.276H273.655a8.83 8.83 0 0 1-8.828-8.828h0a8.83 8.83 0 0 1 8.828-8.828h114.759a8.83 8.83 0 0 1 8.828 8.828h0a8.83 8.83 0 0 1-8.828 8.828z"/><path id="C" d="M238.345 216.276H123.586a8.83 8.83 0 0 1-8.828-8.828h0a8.83 8.83 0 0 1 8.828-8.828h114.759a8.83 8.83 0 0 1 8.828 8.828h0a8.83 8.83 0 0 1-8.828 8.828z"/></defs></svg>